Input #0, rtsp, from 'rtsp://admin:Puran234@192.168.1.64:554/Streaming/Channels/101':
  Metadata:
    title           : HIK Media Server V4.83.610
    comment         : HIK Media Server Session Description : standard
  Duration: N/A, start: 0.000000, bitrate: N/A
  Stream #0:0: Video: h264 (Main), yuvj420p(pc, bt709, progressive), 960x1088, 15 fps, 25 tbr, 90k tbn, start 0.080000
  Stream #0:1: Audio: pcm_mulaw, 8000 Hz, mono, s16, 64 kb/s
Stream mapping:
  Stream #0:0 -> #0:0 (h264 (native) -> rawvideo (native))
Press [q] to stop, [?] for help
[swscaler @ 000001d0157550c0] deprecated pixel format used, make sure you did set range correctly
Output #0, rawvideo, to 'pipe:1':
  Metadata:
    title           : HIK Media Server V4.83.610
    comment         : HIK Media Server Session Description : standard
    encoder         : Lavf62.3.100
  Stream #0:0: Video: rawvideo (BGR[24] / 0x18524742), bgr24(pc, gbr/bt709/bt709, progressive), 1280x720, q=2-31, 331776 kb/s, 15 fps, 15 tbn
    Metadata:
      encoder         : Lavc62.11.100 rawvideo
frame=   11 fps=0.0 q=-0.0 size=   27000KiB time=00:00:01.26 bitrate=174618.9kbits/s speed=2.49x elapsed=0:00:00.50    frame=   24 fps= 23 q=-0.0 size=   62100KiB time=00:00:01.80 bitrate=282624.0kbits/s speed=1.76x elapsed=0:00:01.02    frame=   34 fps= 22 q=-0.0 size=   89100KiB time=00:00:02.26 bitrate=322017.8kbits/s speed=1.47x elapsed=0:00:01.53    frame=   42 fps= 20 q=-0.0 size=  110700KiB time=00:00:02.80 bitrate=323876.6kbits/s speed=1.36x elapsed=0:00:02.05    frame=   50 fps= 19 q=-0.0 size=  132300KiB time=00:00:03.33 bitrate=325140.5kbits/s speed= 1.3x elapsed=0:00:02.57    frame=   57 fps= 18 q=-0.0 size=  151200KiB time=00:00:03.80 bitrate=325955.4kbits/s speed=1.23x elapsed=0:00:03.09    frame=   66 fps= 18 q=-0.0 size=  175500KiB time=00:00:04.40 bitrate=326749.1kbits/s speed=1.22x elapsed=0:00:03.60    frame=   73 fps= 18 q=-0.0 size=  194400KiB time=00:00:04.86 bitrate=327231.1kbits/s speed=1.18x elapsed=0:00:04.12    frame=   82 fps= 18 q=-0.0 size=  218700KiB time=00:00:05.46 bitrate=327729.9kbits/s speed=1.18x elapsed=0:00:04.63    frame=   88 fps= 17 q=-0.0 size=  234900KiB time=00:00:05.86 bitrate=328005.8kbits/s speed=1.14x elapsed=0:00:05.14    frame=   97 fps= 17 q=-0.0 size=  259200KiB time=00:00:06.46 bitrate=328355.6kbits/s speed=1.14x elapsed=0:00:05.66    frame=  104 fps= 17 q=-0.0 size=  278100KiB time=00:00:06.93 bitrate=328585.9kbits/s speed=1.12x elapsed=0:00:06.18    frame=  112 fps= 17 q=-0.0 size=  299700KiB time=00:00:07.46 bitrate=328813.7kbits/s speed=1.11x elapsed=0:00:06.70    frame=  119 fps= 17 q=-0.0 size=  318600KiB time=00:00:07.93 bitrate=328988.0kbits/s speed= 1.1x elapsed=0:00:07.21    frame=  127 fps= 16 q=-0.0 size=  340200KiB time=00:00:08.46 bitrate=329163.6kbits/s speed= 1.1x elapsed=0:00:07.72    frame=  135 fps= 16 q=-0.0 size=  361800KiB time=00:00:09.00 bitrate=329318.4kbits/s speed=1.09x elapsed=0:00:08.24    frame=  143 fps= 16 q=-0.0 size=  383400KiB time=00:00:09.53 bitrate=329455.9kbits/s speed=1.09x elapsed=0:00:08.75    frame=  150 fps= 16 q=-0.0 size=  402300KiB time=00:00:10.00 bitrate=329564.2kbits/s speed=1.08x elapsed=0:00:09.27    frame=  159 fps= 16 q=-0.0 size=  426600KiB time=00:00:10.60 bitrate=329689.4kbits/s speed=1.08x elapsed=0:00:09.78    frame=  165 fps= 16 q=-0.0 size=  442800KiB time=00:00:11.00 bitrate=329765.2kbits/s speed=1.07x elapsed=0:00:10.30    frame=  174 fps= 16 q=-0.0 size=  467100KiB time=00:00:11.60 bitrate=329869.2kbits/s speed=1.07x elapsed=0:00:10.82    frame=  181 fps= 16 q=-0.0 size=  486000KiB time=00:00:12.06 bitrate=329943.0kbits/s speed=1.06x elapsed=0:00:11.33    frame=  189 fps= 16 q=-0.0 size=  507600KiB time=00:00:12.60 bitrate=330020.6kbits/s speed=1.06x elapsed=0:00:11.84    frame=  197 fps= 16 q=-0.0 size=  529200KiB time=00:00:13.13 bitrate=330091.9kbits/s speed=1.06x elapsed=0:00:12.37    frame=  205 fps= 16 q=-0.0 size=  550800KiB time=00:00:13.66 bitrate=330157.6kbits/s speed=1.06x elapsed=0:00:12.88    frame=  212 fps= 16 q=-0.0 size=  569700KiB time=00:00:14.13 bitrate=330211.0kbits/s speed=1.05x elapsed=0:00:13.39    frame=  220 fps= 16 q=-0.0 size=  591300KiB time=00:00:14.66 bitrate=330267.9kbits/s speed=1.05x elapsed=0:00:13.92    frame=  228 fps= 16 q=-0.0 size=  612900KiB time=00:00:15.20 bitrate=330320.8kbits/s speed=1.05x elapsed=0:00:14.43    frame=  235 fps= 16 q=-0.0 size=  631800KiB time=00:00:15.66 bitrate=330364.2kbits/s speed=1.05x elapsed=0:00:14.94    frame=  242 fps= 16 q=-0.0 size=  650700KiB time=00:00:16.13 bitrate=330405.0kbits/s speed=1.04x elapsed=0:00:15.46    frame=  250 fps= 16 q=-0.0 size=  672300KiB time=00:00:16.66 bitrate=330448.9kbits/s speed=1.04x elapsed=0:00:15.97    frame=  258 fps= 16 q=-0.0 size=  693900KiB time=00:00:17.20 bitrate=330490.0kbits/s speed=1.04x elapsed=0:00:16.49    frame=  265 fps= 16 q=-0.0 size=  712800KiB time=00:00:17.66 bitrate=330524.0kbits/s speed=1.04x elapsed=0:00:17.00    frame=  273 fps= 16 q=-0.0 size=  734400KiB time=00:00:18.20 bitrate=330560.7kbits/s speed=1.04x elapsed=0:00:17.52    frame=  281 fps= 16 q=-0.0 size=  756000KiB time=00:00:18.73 bitrate=330595.3kbits/s speed=1.04x elapsed=0:00:18.03    frame=  288 fps= 16 q=-0.0 size=  774900KiB time=00:00:19.20 bitrate=330624.0kbits/s speed=1.03x elapsed=0:00:18.56    frame=  296 fps= 16 q=-0.0 size=  796500KiB time=00:00:19.73 bitrate=330655.1kbits/s speed=1.03x elapsed=0:00:19.06    frame=  304 fps= 16 q=-0.0 size=  818100KiB time=00:00:20.26 bitrate=330684.6kbits/s speed=1.03x elapsed=0:00:19.58    frame=  311 fps= 15 q=-0.0 size=  837000KiB time=00:00:20.73 bitrate=330709.2kbits/s speed=1.03x elapsed=0:00:20.09    frame=  320 fps= 16 q=-0.0 size=  861300KiB time=00:00:21.33 bitrate=330739.2kbits/s speed=1.03x elapsed=0:00:20.61    frame=  327 fps= 15 q=-0.0 size=  880200KiB time=00:00:21.80 bitrate=330761.4kbits/s speed=1.03x elapsed=0:00:21.13    frame=  336 fps= 16 q=-0.0 size=  904500KiB time=00:00:22.40 bitrate=330788.6kbits/s speed=1.03x elapsed=0:00:21.65    frame=  342 fps= 15 q=-0.0 size=  920700KiB time=00:00:22.80 bitrate=330805.9kbits/s speed=1.03x elapsed=0:00:22.16    frame=  350 fps= 15 q=-0.0 size=  942300KiB time=00:00:23.40 bitrate=329885.5kbits/s speed=1.03x elapsed=0:00:22.68    frame=  358 fps= 15 q=-0.0 size=  963900KiB time=00:00:23.86 bitrate=330849.2kbits/s speed=1.03x elapsed=0:00:23.19    frame=  366 fps= 15 q=-0.0 size=  985500KiB time=00:00:24.40 bitrate=330869.5kbits/s speed=1.03x elapsed=0:00:23.71    frame=  373 fps= 15 q=-0.0 size= 1004400KiB time=00:00:24.86 bitrate=330886.5kbits/s speed=1.03x elapsed=0:00:24.22    frame=  382 fps= 15 q=-0.0 size= 1028700KiB time=00:00:25.46 bitrate=330907.5kbits/s speed=1.03x elapsed=0:00:24.74    frame=  389 fps= 15 q=-0.0 size= 1047600KiB time=00:00:25.93 bitrate=330923.1kbits/s speed=1.03x elapsed=0:00:25.25    frame=  398 fps= 15 q=-0.0 size= 1071900KiB time=00:00:26.53 bitrate=330942.4kbits/s speed=1.03x elapsed=0:00:25.77    frame=  405 fps= 15 q=-0.0 size= 1090800KiB time=00:00:27.00 bitrate=330956.8kbits/s speed=1.03x elapsed=0:00:26.28    frame=  413 fps= 15 q=-0.0 size= 1112400KiB time=00:00:27.53 bitrate=330972.7kbits/s speed=1.03x elapsed=0:00:26.80    frame=  420 fps= 15 q=-0.0 size= 1131300KiB time=00:00:28.00 bitrate=330986.1kbits/s speed=1.02x elapsed=0:00:27.32    frame=  428 fps= 15 q=-0.0 size= 1152900KiB time=00:00:28.53 bitrate=331000.8kbits/s speed=1.03x elapsed=0:00:27.83    frame=  435 fps= 15 q=-0.0 size= 1171800KiB time=00:00:29.00 bitrate=331013.3kbits/s speed=1.02x elapsed=0:00:28.34    frame=  444 fps= 15 q=-0.0 size= 1196100KiB time=00:00:29.60 bitrate=331028.8kbits/s speed=1.03x elapsed=0:00:28.87    frame=  450 fps= 15 q=-0.0 size= 1212300KiB time=00:00:30.00 bitrate=331038.7kbits/s speed=1.02x elapsed=0:00:29.38    frame=  459 fps= 15 q=-0.0 size= 1236600KiB time=00:00:30.60 bitrate=331053.2kbits/s speed=1.02x elapsed=0:00:29.89    frame=  466 fps= 15 q=-0.0 size= 1255500KiB time=00:00:31.06 bitrate=331064.0kbits/s speed=1.02x elapsed=0:00:30.41    frame=  474 fps= 15 q=-0.0 size= 1277100KiB time=00:00:31.60 bitrate=331076.1kbits/s speed=1.02x elapsed=0:00:30.93    frame=  482 fps= 15 q=-0.0 size= 1298700KiB time=00:00:32.13 bitrate=331087.7kbits/s speed=1.02x elapsed=0:00:31.44    frame=  490 fps= 15 q=-0.0 size= 1320300KiB time=00:00:32.66 bitrate=331098.9kbits/s speed=1.02x elapsed=0:00:31.96    frame=  497 fps= 15 q=-0.0 size= 1339200KiB time=00:00:33.13 bitrate=331108.4kbits/s speed=1.02x elapsed=0:00:32.47    frame=  505 fps= 15 q=-0.0 size= 1360800KiB time=00:00:33.66 bitrate=331119.0kbits/s speed=1.02x elapsed=0:00:32.99    frame=  513 fps= 15 q=-0.0 size= 1382400KiB time=00:00:34.20 bitrate=331129.3kbits/s speed=1.02x elapsed=0:00:33.50    frame=  521 fps= 15 q=-0.0 size= 1404000KiB time=00:00:34.73 bitrate=331139.2kbits/s speed=1.02x elapsed=0:00:34.02    frame=  528 fps= 15 q=-0.0 size= 1422900KiB time=00:00:35.20 bitrate=331147.6kbits/s speed=1.02x elapsed=0:00:34.53    frame=  536 fps= 15 q=-0.0 size= 1444500KiB time=00:00:35.73 bitrate=331157.0kbits/s speed=1.02x elapsed=0:00:35.05    frame=  544 fps= 15 q=-0.0 size= 1466100KiB time=00:00:36.26 bitrate=331166.1kbits/s speed=1.02x elapsed=0:00:35.57    frame=  551 fps= 15 q=-0.0 size= 1485000KiB time=00:00:36.73 bitrate=331173.9kbits/s speed=1.02x elapsed=0:00:36.08    frame=  560 fps= 15 q=-0.0 size= 1509300KiB time=00:00:37.33 bitrate=331183.5kbits/s speed=1.02x elapsed=0:00:36.59    frame=  567 fps= 15 q=-0.0 size= 1528200KiB time=00:00:37.80 bitrate=331190.9kbits/s speed=1.02x elapsed=0:00:37.11    frame=  576 fps= 15 q=-0.0 size= 1552500KiB time=00:00:38.40 bitrate=331200.0kbits/s speed=1.02x elapsed=0:00:37.63    frame=  582 fps= 15 q=-0.0 size= 1568700KiB time=00:00:38.80 bitrate=331205.9kbits/s speed=1.02x elapsed=0:00:38.14    frame=  590 fps= 15 q=-0.0 size= 1590300KiB time=00:00:39.33 bitrate=331213.7kbits/s speed=1.02x elapsed=0:00:38.66    frame=  597 fps= 15 q=-0.0 size= 1609200KiB time=00:00:39.80 bitrate=331220.3kbits/s speed=1.02x elapsed=0:00:39.18    frame=  606 fps= 15 q=-0.0 size= 1633500KiB time=00:00:40.40 bitrate=331228.5kbits/s speed=1.02x elapsed=0:00:39.69    frame=  613 fps= 15 q=-0.0 size= 1652400KiB time=00:00:40.86 bitrate=331234.8kbits/s speed=1.02x elapsed=0:00:40.21    frame=  621 fps= 15 q=-0.0 size= 1674000KiB time=00:00:41.40 bitrate=331241.7kbits/s speed=1.02x elapsed=0:00:40.72    